# xmcd CD database file generated by Grip 2.91
# 
# Track frame offsets:
#       150
#       12950
#       31290
#       47370
#       62665
#       75245
#       95680
#       112477
#       134102
#       152962
#       173087
#       191915
# 
# Disc length: 2933 seconds
# 
# Revision: 3
# Processed by: cddbd v1.4b41PL1 Copyright (c) Steve Scherf et al.
# Submitted via: Grip 2.91
# 
DISCID=a20b730c
DTITLE=The Wheel - The Wheel
DYEAR=1900
DGENRE=
TTITLE0=I Fell In Love
TTITLE1=Mixed Up Boy
TTITLE2=There Goes My Heart Again
TTITLE3=The Only Thing Left
TTITLE4=I Refuse To Sing the Blues
TTITLE5=Till The End
TTITLE6=Man With A Hammer
TTITLE7=Ain't No Lovin'
TTITLE8=Brand New Friend
TTITLE9=Mid-Life Crisis
TTITLE10=Give Me Time
TTITLE11=Wondering Why
EXTD=
EXTT0=
EXTT1=
EXTT2=
EXTT3=
EXTT4=
EXTT5=
EXTT6=
EXTT7=
EXTT8=
EXTT9=
EXTT10=
EXTT11=
PLAYORDER=
